# xmcd
#
# Track frame offsets:
#	150
#	30163
#	44446
#	71161
#	94087
#	115091
#	133987
#	149595
#	171825
#	190944
#	214351
#	234001
#	254206
#	274868
#	294848
#	317348
#
# Disc length: 4481 seconds
#
# Revision: 1
# Processed by: cddbd v1.5.2PL0 Copyright (c) Steve Scherf et al.
# Submitted via: audiograbber 1.83.01
#
DISCID=f2117f10
DTITLE=Григорий Лепс - Вся жизнь моя - дорога
DYEAR=2007
DGENRE=Chanson
TTITLE0=Купола
TTITLE1=Парус
TTITLE2=Моя цыганская
TTITLE3=Лабиринт
TTITLE4=Вьюга
TTITLE5=Нет, нет, нет
TTITLE6=Рок-н-Ролл
TTITLE7=Разные люди
TTITLE8=Она
TTITLE9=Замерзает Солнце
TTITLE10=Мой сон
TTITLE11=Небо
TTITLE12=В центре Земли
TTITLE13=Не подарок
TTITLE14=Дорога
TTITLE15=Бессонница
EXTD=//desc by ksw
EXTT0=
EXTT1=
EXTT2=
EXTT3=
EXTT4=
EXTT5=
EXTT6=
EXTT7=
EXTT8=
EXTT9=
EXTT10=
EXTT11=
EXTT12=
EXTT13=
EXTT14=
EXTT15=
PLAYORDER=
